<?xml version="1.0" standalone="no"?>
<!DOCTYPE svg PUBLIC "-//W3C//DTD SVG 20010904//EN"
 "http://www.w3.org/TR/2001/REC-SVG-20010904/DTD/svg10.dtd">
<svg version="1.0" xmlns="http://www.w3.org/2000/svg"
 width="224.000000pt" height="224.000000pt" viewBox="0 0 224.000000 224.000000"
 preserveAspectRatio="xMidYMid meet">
<metadata>
Created by potrace 1.14, written by Peter Selinger 2001-2017
</metadata>
<g transform="translate(0.000000,224.000000) scale(0.100000,-0.100000)"
fill="#000000" stroke="none">
<path d="M1134 1495 c-5 -11 -11 -12 -25 -4 -10 5 -19 6 -19 2 0 -10 -73 -9
-88 1 -7 4 -9 -1 -7 -15 4 -22 4 -22 -17 1 -14 15 -23 19 -26 11 -3 -8 -8 -9
-17 -1 -9 7 -16 6 -25 -5 -17 -20 -31 -19 -23 3 5 13 3 14 -7 5 -8 -7 -22 -8
-41 -3 -16 5 -29 5 -29 0 0 -4 -11 -7 -25 -6 -13 2 -22 0 -20 -5 11 -17 -17
-20 -41 -4 -13 9 -30 13 -36 9 -7 -4 -8 -3 -4 4 4 7 2 12 -3 12 -6 0 -11 -5
-11 -11 0 -8 -5 -8 -15 1 -11 9 -15 9 -15 1 0 -7 -5 -9 -10 -6 -19 11 -46 -5
-47 -28 0 -12 -3 -33 -6 -47 -3 -14 -6 -29 -6 -33 -1 -5 -7 -5 -13 -1 -9 5 -9
3 1 -9 11 -14 11 -18 -3 -23 -15 -6 -15 -7 0 -19 12 -8 13 -14 6 -19 -6 -4 -9
-13 -6 -21 4 -8 10 -13 14 -10 5 3 11 1 15 -5 3 -5 11 -10 16 -10 6 0 7 4 4
10 -3 6 1 7 9 4 18 -7 11 -24 -10 -24 -8 0 -13 -3 -12 -7 5 -18 -24 -54 -38
-49 -8 3 -13 2 -9 -3 3 -5 2 -17 -1 -26 -5 -13 -8 -14 -15 -3 -7 10 -9 10 -9
1 0 -33 -33 -69 -52 -57 -10 6 -10 4 1 -9 11 -14 11 -18 -3 -23 -9 -3 -13 -11
-9 -17 4 -6 0 -8 -9 -4 -12 4 -14 1 -11 -14 5 -17 -5 -24 -29 -20 -4 0 -5 -5
-2 -12 3 -8 -5 -19 -18 -26 -15 -7 -16 -10 -4 -6 16 5 17 3 6 -10 -7 -8 -16
-12 -21 -9 -5 3 -8 0 -7 -8 2 -7 -3 -12 -10 -10 -8 1 -11 -2 -7 -8 3 -6 -12
-28 -34 -51 -23 -22 -41 -38 -41 -35 0 3 -11 -6 -25 -19 -14 -12 -34 -22 -43
-20 -9 1 -24 -1 -32 -5 -10 -5 -24 -1 -39 11 -21 17 -21 19 -5 19 18 1 18 1 2
11 -14 8 -15 14 -6 34 8 19 8 28 -2 40 -16 19 -39 19 -46 0 -4 -8 -10 -13 -15
-10 -4 3 -6 -4 -4 -15 2 -11 1 -20 -3 -20 -4 0 -8 -9 -8 -20 0 -11 4 -20 9
-20 4 0 5 -5 2 -10 -4 -6 -1 -18 7 -27 11 -14 11 -16 -2 -8 -8 4 -5 -2 7 -14
12 -11 27 -21 33 -21 5 0 10 -5 10 -11 0 -6 7 -9 15 -6 8 4 17 2 20 -4 4 -5
11 -7 16 -3 9 5 41 12 77 16 6 1 12 6 12 11 0 5 7 6 16 3 8 -3 12 -2 9 3 -3 5
4 12 15 16 11 3 20 11 20 16 0 6 4 8 9 4 5 -3 13 4 16 15 6 18 9 19 23 8 9 -8
13 -8 9 -1 -9 14 2 45 14 37 5 -3 9 0 9 6 0 19 29 42 42 34 10 -5 10 -4 1 6
-10 11 -8 18 10 34 13 12 26 30 30 39 4 10 12 15 17 12 6 -4 10 -3 9 2 -4 22
3 33 19 34 11 0 12 2 4 6 -9 4 -7 10 7 22 12 10 17 22 13 26 -4 5 1 5 11 2 10
-4 16 -3 12 3 -8 13 36 61 48 53 6 -3 7 -1 3 6 -4 6 5 24 21 41 45 48 67 34
32 -21 -9 -13 -19 -32 -22 -42 -4 -11 -12 -15 -19 -11 -10 6 -10 4 0 -8 8 -10
9 -19 3 -22 -5 -3 -12 0 -15 6 -2 7 -3 2 -2 -12 4 -30 -13 -82 -24 -75 -4 3
-6 -4 -3 -15 3 -12 -2 -29 -13 -42 -11 -12 -13 -18 -7 -14 10 5 11 1 3 -18 -5
-14 -7 -26 -4 -26 4 0 0 -8 -7 -17 -12 -14 -12 -15 -1 -9 11 7 12 4 3 -13 -8
-14 -8 -21 -1 -21 7 0 7 -7 -1 -21 -7 -13 -7 -19 -1 -15 6 3 13 -2 16 -12 5
-14 16 -18 45 -18 22 0 37 4 35 8 -3 4 0 8 5 8 6 0 11 5 11 10 0 6 10 25 22
43 13 18 24 34 25 36 1 1 7 0 14 -5 9 -5 7 -10 -7 -15 -17 -7 -17 -8 5 -8 18
-1 22 -5 18 -21 -3 -11 0 -18 7 -17 6 1 10 -3 9 -9 -1 -7 5 -11 15 -10 10 0
16 -5 14 -13 -3 -12 0 -12 12 -1 13 10 16 10 16 -1 0 -11 2 -11 10 1 5 8 10
11 10 5 0 -5 16 -10 35 -10 19 0 35 3 35 8 0 10 23 4 32 -8 4 -6 8 -2 8 9 0
14 6 17 25 13 14 -2 23 -2 20 1 -3 3 9 12 26 19 26 11 35 11 48 1 14 -11 14
-11 4 3 -11 13 -9 18 12 27 21 10 28 8 45 -10 11 -12 19 -27 17 -33 -3 -5 7
-11 21 -12 13 0 28 -7 33 -15 7 -11 9 -11 9 1 0 10 3 11 13 2 8 -6 16 -8 19
-5 3 2 18 7 33 10 19 3 24 1 19 -7 -4 -8 -3 -9 5 -5 6 4 9 12 6 17 -6 8 8 13
20 7 2 -2 11 6 19 17 9 11 16 16 16 11 0 -6 6 -1 14 9 12 17 16 18 32 5 16
-12 17 -12 7 0 -15 17 -17 34 -3 25 6 -3 10 -1 10 5 0 6 4 9 8 6 5 -3 24 -8
42 -11 45 -8 48 -11 43 -40 -4 -17 0 -27 11 -31 9 -3 13 -10 10 -15 -13 -21
26 5 46 31 13 16 26 27 31 24 5 -3 6 1 3 9 -6 17 23 50 37 41 5 -3 8 -2 7 3
-5 19 24 54 40 48 9 -3 13 -3 10 1 -4 4 -3 15 3 26 9 16 13 17 27 6 13 -10 14
-10 8 0 -12 20 13 45 31 31 11 -9 12 -9 7 5 -8 22 21 32 44 15 15 -13 16 -12
4 3 -11 14 -10 17 5 22 39 12 71 14 84 5 10 -6 10 -9 2 -9 -7 0 -13 -5 -13
-11 0 -5 6 -7 13 -4 6 4 2 -2 -10 -13 -12 -11 -19 -22 -16 -26 4 -3 2 -6 -4
-6 -6 0 -16 -13 -23 -29 -8 -21 -17 -28 -28 -24 -13 4 -14 3 -3 -5 10 -7 11
-14 1 -32 -6 -12 -9 -24 -6 -27 3 -3 -2 -12 -12 -20 -13 -10 -14 -13 -2 -11 9
2 14 -4 13 -15 0 -10 2 -16 5 -13 3 3 12 0 20 -7 14 -11 104 -18 97 -7 -1 3
17 17 42 32 24 16 41 22 37 15 -3 -6 5 1 18 17 14 17 30 26 36 22 8 -5 10 -1
5 10 -4 10 -2 15 3 11 8 -5 33 36 37 60 1 12 -72 12 -80 0 -4 -6 -1 -7 8 -2 8
4 5 -1 -6 -12 -15 -16 -23 -18 -34 -9 -12 8 -13 8 -7 -2 5 -8 -2 -21 -20 -35
-37 -30 -55 -36 -79 -26 -11 4 -14 8 -6 8 8 1 11 4 8 8 -4 3 1 12 11 20 9 8
11 11 3 7 -8 -4 -2 11 15 33 16 23 31 40 34 38 3 -2 7 4 8 13 3 31 7 47 15 60
5 7 2 14 -7 18 -8 3 -18 14 -21 24 -4 11 -12 17 -21 13 -7 -3 -14 -1 -14 4 0
10 -60 10 -78 -1 -7 -4 -12 -2 -12 6 0 10 -2 10 -9 -1 -5 -8 -16 -11 -25 -8
-9 4 -15 3 -15 -1 3 -19 -2 -25 -11 -12 -8 13 -10 12 -10 -4 0 -11 -3 -16 -7
-13 -3 4 -15 -1 -26 -10 -11 -10 -18 -13 -14 -7 7 12 -21 48 -40 52 -7 1 -13
-3 -13 -9 0 -5 -4 -8 -9 -5 -4 3 -7 -5 -6 -18 4 -28 -31 -90 -45 -81 -6 3 -10
1 -10 -4 0 -6 5 -11 11 -11 5 0 7 -5 4 -10 -4 -6 -11 -7 -17 -4 -6 4 -8 2 -5
-3 4 -6 -3 -19 -15 -29 -14 -12 -18 -14 -13 -4 7 13 6 13 -11 0 -10 -9 -32
-15 -49 -15 -34 0 -36 17 -5 67 12 20 20 25 23 16 4 -8 6 -9 6 -1 1 6 -3 14
-8 17 -5 3 -7 14 -4 24 2 10 -6 29 -20 44 -14 15 -22 30 -19 33 4 3 -1 3 -10
0 -9 -4 -19 -1 -23 4 -3 6 -11 9 -16 6 -5 -4 -9 -2 -9 4 0 11 -40 8 -60 -4 -9
-6 -11 -4 -5 6 5 8 0 7 -12 -4 -11 -9 -23 -14 -26 -10 -4 3 -16 -2 -27 -12
-11 -10 -20 -15 -20 -10 0 4 -6 2 -13 -4 -8 -6 -17 -9 -20 -6 -4 3 -5 2 -3 -1
7 -9 -26 -44 -36 -38 -4 3 -8 -2 -8 -10 0 -8 -5 -18 -12 -22 -7 -5 -8 -3 -3 6
5 9 4 11 -3 6 -7 -4 -12 -14 -12 -22 0 -9 -5 -12 -12 -8 -8 5 -9 2 -5 -9 7
-18 -30 -50 -46 -40 -6 3 -7 1 -4 -5 8 -11 -87 -74 -97 -65 -3 4 -6 1 -6 -6 0
-8 -8 -11 -20 -8 -11 3 -23 0 -27 -5 -4 -7 -1 -8 7 -3 9 5 11 4 6 -3 -5 -9
-13 -9 -27 -2 -14 8 -21 8 -24 -2 -3 -8 -19 -13 -38 -12 -17 1 -40 2 -50 3
-10 1 -16 5 -13 10 4 5 0 12 -6 14 -10 4 -9 8 2 16 10 7 11 11 3 11 -7 0 -13
5 -13 11 0 5 5 7 12 3 8 -5 9 -2 5 10 -6 14 -3 17 9 12 14 -5 15 -4 4 9 -7 9
-10 18 -6 22 3 3 6 1 6 -5 0 -7 12 -12 26 -12 14 0 23 -4 19 -10 -3 -5 -1 -10
4 -10 6 0 11 5 11 10 0 7 6 7 20 0 11 -6 20 -8 20 -4 0 3 8 0 17 -7 14 -12 16
-12 8 0 -6 11 -1 13 24 9 17 -2 31 0 31 5 0 5 7 7 15 3 8 -3 15 0 15 6 0 6 3
8 6 5 4 -4 16 3 26 15 16 19 21 20 29 8 8 -11 9 -9 4 9 -5 15 -3 21 3 17 6 -3
14 -1 18 5 4 8 3 9 -4 5 -13 -8 -17 6 -5 18 11 10 12 36 2 36 -5 0 -9 9 -9 19
0 10 -7 21 -15 25 -20 7 -8 36 16 36 10 0 19 4 19 8 0 9 57 44 64 40 2 -2 8 1
13 6 5 5 3 6 -4 2 -9 -5 -13 0 -13 13 0 13 7 21 18 22 9 0 12 3 6 5 -7 3 -10
14 -7 24 3 11 9 17 14 14 5 -3 9 0 9 6 0 7 6 8 19 0 14 -7 21 -6 24 3 4 9 8 8
17 -3 10 -12 11 -11 7 9 -5 19 1 16 37 -21 31 -33 49 -44 67 -42 13 1 29 3 35
3 10 1 11 28 3 58 -2 6 -1 11 4 12 19 3 27 0 41 -15 9 -8 16 -11 16 -6 0 5 11
7 25 4 13 -2 33 -1 42 4 26 11 37 11 50 1 7 -5 16 -6 22 -3 5 3 12 0 14 -6 4
-9 6 -9 6 1 1 11 5 10 16 -5 14 -18 15 -18 8 0 -5 16 -3 17 11 9 25 -14 64 -4
71 18 4 11 11 16 17 13 5 -3 2 8 -7 26 -16 30 -16 32 2 28 10 -2 17 -10 15
-16 -1 -7 2 -12 8 -12 17 0 11 19 -9 32 -16 10 -18 15 -8 27 10 12 9 13 -1 7
-12 -7 -12 -4 -1 15 7 13 12 28 11 32 -1 5 2 6 8 2 16 -10 12 11 -5 25 -8 7
-13 16 -10 20 3 5 1 12 -5 15 -6 4 -10 3 -9 -2 3 -20 -2 -27 -11 -13 -5 8 -10
10 -10 4 0 -8 -13 -9 -40 -4 -22 4 -40 4 -40 0 0 -7 -61 -4 -88 5 -7 3 -11 1
-8 -4 3 -5 -2 -15 -11 -22 -9 -8 -14 -9 -11 -4 4 6 3 17 -3 25 -6 10 -9 11 -9
3 0 -7 -5 -13 -11 -13 -5 0 -8 4 -4 9 3 5 0 13 -6 17 -8 4 -9 3 -5 -4 7 -12
-5 -16 -31 -13 -7 1 -13 -3 -13 -9 0 -17 -18 -12 -42 12 -12 12 -19 15 -16 7
4 -11 -3 -14 -31 -14 -20 1 -39 -4 -43 -9 -4 -6 -11 -6 -20 1 -7 6 -36 10 -65
9 -28 0 -49 2 -46 7 2 4 -1 7 -6 7 -6 0 -11 -4 -11 -8 0 -5 -10 -8 -22 -7 -13
2 -22 8 -20 14 3 16 -8 13 -14 -4z m-501 -60 c-3 -9 -8 -14 -10 -11 -3 3 -2 9
2 15 9 16 15 13 8 -4z m72 4 c12 -18 -3 -22 -20 -5 -14 14 -14 16 -1 16 8 0
18 -5 21 -11z m95 1 c-8 -5 -21 -29 -27 -52 l-13 -43 6 40 c6 42 19 65 38 65
6 0 4 -5 -4 -10z m68 -13 c2 -9 -2 -17 -9 -17 -7 0 -9 3 -6 7 4 3 1 13 -6 21
-10 13 -9 14 3 10 8 -2 16 -12 18 -21z m166 -4 c-4 -16 -10 -32 -15 -37 -5 -5
-4 6 1 25 6 18 10 35 10 36 0 2 2 3 5 3 3 0 2 -12 -1 -27z m129 20 c-7 -2 -13
-19 -13 -36 0 -18 -5 -39 -11 -47 -9 -12 -10 -12 -5 3 3 10 6 34 6 53 0 26 4
34 18 33 10 0 12 -3 5 -6z m111 -30 c-3 -21 -10 -42 -14 -47 -5 -5 -4 9 1 30
4 22 9 42 9 47 0 4 2 7 5 7 3 0 3 -17 -1 -37z m161 27 c9 -14 -4 -90 -15 -90
-5 0 -4 14 2 31 8 24 8 37 -1 50 -6 11 -7 19 -2 19 6 0 13 -5 16 -10z m78 -5
c-3 -9 -8 -14 -10 -11 -3 3 -2 9 2 15 9 16 15 13 8 -4z m172 5 c-6 -10 -14
-56 -18 -107 -2 -20 -17 -34 -17 -16 0 31 24 133 32 133 5 0 6 -5 3 -10z
m-335 -15 c-7 -8 -10 -15 -7 -15 3 0 1 -16 -3 -36 -7 -29 -5 -39 11 -55 10
-10 15 -19 10 -19 -19 0 -41 32 -36 53 3 12 6 31 8 42 3 22 15 45 24 45 3 0 0
-7 -7 -15z m-420 -65 c-6 -42 -8 -47 -9 -20 -1 34 8 84 14 78 2 -2 0 -28 -5
-58z m667 35 c-1 -13 -6 -27 -9 -31 -4 -3 -5 2 -3 13 2 10 4 24 4 31 1 6 3 12
6 12 3 0 4 -11 2 -25z m-978 -26 c-5 -22 -7 -44 -4 -50 4 -5 1 -9 -6 -9 -8 0
-9 10 -5 31 3 17 6 40 6 50 0 11 4 19 9 19 5 0 5 -17 0 -41z m471 26 c7 4 7
-17 0 -35 -1 -3 -2 -8 -2 -11 1 -3 -6 -6 -14 -6 -10 0 -13 8 -10 26 2 14 5 31
6 36 1 6 4 4 7 -3 2 -6 8 -10 13 -7z m415 -35 c0 -27 -3 -50 -7 -50 -9 0 -11
62 -2 84 3 9 7 16 8 16 0 0 1 -22 1 -50z m-289 12 c2 -11 -1 -24 -6 -27 -6 -4
-8 -10 -6 -14 3 -4 -1 -8 -8 -8 -11 0 -12 16 -7 70 2 17 24 0 27 -21z m-363
-33 c-6 -6 -7 3 -4 23 4 28 6 29 9 9 2 -13 0 -27 -5 -32z m404 -21 c-3 -7 -5
-2 -5 12 0 14 2 19 5 13 2 -7 2 -19 0 -25z m326 17 c-3 -9 -8 -14 -10 -11 -3
3 -2 9 2 15 9 16 15 13 8 -4z m-883 1 c0 -2 -8 -10 -17 -17 -16 -13 -17 -12
-4 4 13 16 21 21 21 13z m186 -35 c-3 -5 8 -15 24 -23 l29 -14 -52 -50 c-28
-27 -55 -48 -59 -46 -5 1 -7 -3 -6 -10 2 -7 -2 -12 -9 -13 -6 0 -15 -4 -20 -9
-5 -5 -3 -6 5 -2 20 12 14 -13 -7 -26 -10 -6 -17 -18 -14 -25 4 -9 0 -11 -13
-6 -12 4 -15 3 -10 -6 4 -6 2 -18 -4 -27 -10 -12 -16 -12 -29 -2 -14 11 -14
11 -3 -4 11 -13 11 -20 0 -37 -7 -12 -15 -21 -19 -21 -3 0 -6 -6 -6 -14 0 -13
-41 -86 -48 -86 -2 0 -7 5 -11 12 -5 7 -3 8 5 4 8 -5 12 -3 10 5 -4 33 2 70
11 64 5 -3 7 -13 4 -23 -5 -14 -4 -14 4 -3 7 10 7 21 1 32 -12 23 -1 49 20 50
9 0 11 3 5 5 -14 6 -6 44 8 44 5 0 6 5 3 10 -3 6 -1 10 5 10 7 0 10 6 7 14 -3
8 1 20 9 26 8 7 14 19 14 26 0 8 4 14 9 14 5 0 12 12 16 28 9 41 37 72 68 74
15 1 27 8 27 14 0 7 6 15 13 17 18 8 19 8 13 -2z m165 -95 c0 -11 3 -15 6 -8
2 6 9 12 14 12 4 0 6 -7 2 -16 -3 -9 -12 -13 -21 -9 -8 3 -18 1 -21 -4 -8 -13
-76 -18 -76 -6 0 6 8 10 17 9 12 0 15 3 8 11 -6 7 -2 15 12 24 11 7 17 8 14 2
-4 -7 -1 -8 8 -5 9 3 13 10 10 15 -3 5 2 6 10 3 9 -3 16 -16 17 -28z m-167
-123 c-10 -7 -23 -13 -28 -12 -6 0 -5 3 2 6 6 2 10 8 8 12 -3 4 4 7 15 7 19 0
19 -1 3 -13z m164 -46 c2 -9 -2 -17 -8 -17 -7 0 -9 7 -5 18 5 13 4 14 -6 5 -9
-9 -9 -15 0 -26 9 -12 8 -16 -4 -21 -9 -3 -13 -2 -10 4 3 5 -7 2 -23 -7 -34
-20 -87 -11 -78 13 3 9 1 12 -4 9 -6 -3 -10 -4 -10 -1 0 3 18 14 40 24 50 23
104 23 108 -1z m334 -16 c-13 -2 -13 -4 -1 -12 12 -8 12 -11 -1 -19 -8 -5 -10
-10 -4 -10 7 0 10 -14 8 -35 -3 -43 -12 -58 -30 -51 -8 3 -13 2 -13 -2 4 -22
-3 -30 -20 -27 -15 3 -18 -1 -14 -12 4 -10 2 -14 -5 -9 -6 3 -13 2 -17 -4 -9
-15 -27 -12 -20 3 4 6 1 5 -7 -3 -16 -18 -48 -25 -48 -10 0 6 4 9 9 5 5 -3 12
-1 16 4 3 6 -6 8 -22 5 -15 -3 -24 -2 -20 2 4 4 1 14 -6 22 -10 13 -9 15 4 10
9 -4 16 -1 16 8 0 7 -4 11 -9 8 -4 -3 -8 0 -8 6 0 6 7 13 15 16 8 4 12 10 9
15 -3 5 0 9 7 9 7 0 10 3 6 6 -3 3 2 13 12 23 28 28 91 74 91 66 0 -4 7 -2 16
6 13 10 17 10 25 -2 7 -11 9 -10 10 6 l0 20 8 -20 c6 -14 4 -21 -7 -24z"/>
<path d="M1073 1375 c0 -8 4 -12 9 -9 5 3 6 10 3 15 -9 13 -12 11 -12 -6z"/>
<path d="M676 1002 c-3 -5 1 -9 9 -9 8 0 12 4 9 9 -3 4 -7 8 -9 8 -2 0 -6 -4
-9 -8z"/>
<path d="M937 998 c2 -5 10 -8 18 -8 8 0 16 3 18 8 3 4 -5 7 -18 7 -13 0 -21
-3 -18 -7z"/>
<path d="M413 1493 c4 -6 0 -13 -8 -17 -8 -3 -15 -14 -15 -25 0 -11 -4 -23
-10 -26 -5 -3 -10 -15 -10 -26 0 -10 -5 -19 -11 -19 -5 0 -8 -4 -4 -9 3 -5 0
-13 -6 -17 -8 -4 -9 -3 -5 4 4 7 2 12 -3 12 -6 0 -11 -5 -11 -12 0 -6 -3 -8
-6 -5 -4 4 -1 13 6 22 11 13 10 15 -6 9 -14 -4 -13 -1 6 15 16 14 19 19 8 15
-10 -3 -18 -1 -18 5 0 6 4 11 9 11 12 0 1 43 -13 52 -22 15 -58 8 -63 -12 -3
-11 -9 -17 -14 -14 -13 7 -7 -19 6 -28 6 -4 1 -8 -10 -8 -15 0 -17 -2 -6 -9
11 -7 11 -13 -1 -37 -12 -25 -14 -46 -9 -97 1 -5 7 -7 14 -4 6 2 20 0 30 -5 9
-5 17 -5 17 -1 0 4 24 6 54 5 30 -2 62 1 72 6 13 7 22 6 33 -5 9 -10 16 -12
19 -5 2 8 11 8 30 1 15 -6 23 -7 19 -3 -4 4 -2 13 5 21 6 7 8 16 5 20 -4 3 -2
12 4 19 7 8 7 14 -1 19 -5 3 -10 11 -10 17 0 7 4 7 13 0 10 -8 13 -6 13 8 0
10 -4 17 -7 14 -4 -2 -10 0 -14 6 -3 5 -1 10 5 10 7 0 8 6 0 19 -7 14 -7 22 1
26 19 12 -20 42 -57 43 -19 1 -40 5 -46 8 -6 4 -8 3 -5 -3z m-132 -108 c-6
-32 -8 -61 -5 -66 3 -5 0 -9 -5 -9 -6 0 -11 3 -11 7 0 22 23 133 27 130 2 -3
0 -31 -6 -62z m199 58 c0 -5 -13 -8 -29 -8 -16 0 -27 3 -24 8 2 4 15 7 29 7
13 0 24 -3 24 -7z m-3 -45 c-3 -8 -6 -5 -6 6 -1 11 2 17 5 13 3 -3 4 -12 1
-19z m2 -55 c0 -29 -2 -33 -8 -18 -7 18 -4 55 5 55 2 0 4 -17 3 -37z m-83 -15
c-18 -26 -22 -17 -5 14 6 11 13 17 16 15 3 -3 -2 -16 -11 -29z"/>
<path d="M1854 1492 c4 -7 2 -12 -4 -12 -6 0 -8 -5 -4 -12 5 -8 1 -9 -12 -4
-15 6 -17 5 -6 -5 13 -14 17 -33 4 -25 -5 3 -6 -9 -4 -26 3 -21 1 -29 -7 -24
-6 4 -11 2 -11 -3 0 -6 5 -11 11 -11 5 0 8 -4 5 -9 -3 -4 -8 -26 -10 -49 l-6
-40 76 1 c64 0 77 3 86 20 8 15 12 17 18 6 5 -7 6 -17 4 -21 -3 -4 3 -5 12 -1
10 3 15 2 12 -3 -13 -20 73 -5 114 21 24 15 35 24 24 21 -18 -6 -18 -5 -2 18
9 14 13 31 11 38 -3 8 1 33 9 56 9 24 11 40 6 37 -6 -3 -10 1 -10 9 0 9 -6 17
-12 17 -28 3 -53 -4 -60 -15 -5 -8 -8 -7 -8 3 0 8 -7 11 -20 8 -11 -3 -20 -1
-20 4 0 6 -9 5 -20 -1 -11 -6 -26 -8 -32 -4 -8 5 -9 2 -4 -11 5 -13 3 -15 -6
-8 -19 15 -78 33 -78 24 0 -10 -31 -8 -49 4 -10 5 -12 4 -7 -3z m46 -46 c0 -2
-7 -9 -15 -16 -13 -11 -14 -10 -9 4 5 14 24 23 24 12z m65 -7 c12 -18 -3 -22
-20 -5 -14 14 -14 16 -1 16 8 0 18 -5 21 -11z m167 -26 c-3 -16 -7 -22 -10
-15 -4 13 4 42 11 42 2 0 2 -12 -1 -27z m-92 -13 c0 -11 -4 -20 -9 -20 -5 0
-7 9 -4 20 3 11 7 20 9 20 2 0 4 -9 4 -20z m-163 -40 c-1 -29 -7 -50 -13 -50
-8 0 -8 14 -1 50 5 28 11 50 13 50 1 0 2 -22 1 -50z m75 -22 c-6 -6 -7 0 -4
19 5 21 7 23 10 9 2 -10 0 -22 -6 -28z m171 22 c-8 -30 -21 -34 -15 -5 2 14 8
25 12 25 5 0 6 -9 3 -20z m-91 -19 c2 -17 1 -28 -4 -25 -8 5 -12 54 -4 54 2 0
6 -13 8 -29z"/>
<path d="M1447 1279 c7 -7 15 -10 18 -7 3 3 -2 9 -12 12 -14 6 -15 5 -6 -5z"/>
<path d="M400 1260 c-9 -6 -10 -10 -3 -10 6 0 15 5 18 10 8 12 4 12 -15 0z"/>
<path d="M656 1191 c-4 -5 -2 -12 3 -15 5 -4 12 -2 15 3 4 5 2 12 -3 15 -5 4
-12 2 -15 -3z"/>
<path d="M636 1162 c-3 -5 1 -9 9 -9 8 0 12 4 9 9 -3 4 -7 8 -9 8 -2 0 -6 -4
-9 -8z"/>
<path d="M309 893 c-13 -16 -12 -17 4 -4 9 7 17 15 17 17 0 8 -8 3 -21 -13z"/>
<path d="M1939 872 c-13 -15 -12 -16 3 -4 13 10 17 10 21 0 4 -9 6 -9 6 -1 2
20 -16 24 -30 5z"/>
<path d="M830 846 c0 -2 7 -7 16 -10 8 -3 12 -2 9 4 -6 10 -25 14 -25 6z"/>
<path d="M1477 829 c7 -7 15 -10 18 -7 3 3 -2 9 -12 12 -14 6 -15 5 -6 -5z"/>
</g>
</svg>
