<svg width="144" height="89" viewBox="0 0 144 89" fill="none" xmlns="http://www.w3.org/2000/svg">
<path d="M56.3478 70.1109C55.9812 70.1109 55.5917 70.0422 55.1793 69.9047C53.9879 69.5381 53.3921 68.4842 53.3921 66.7428C53.3921 65.643 53.8046 63.3518 54.6294 59.8692C55.1335 57.8071 55.9583 55.1492 57.1039 51.8957C58.2495 48.7797 58.8911 47.1529 59.0285 47.0154C58.8453 46.8779 56.7832 46.8092 52.8423 46.8092H48.2369C41.1799 46.855 37.3994 47.0612 36.8954 47.4278C36.6662 47.6111 36.3913 47.9548 36.0705 48.4589C35.7956 48.9171 35.4748 49.5358 35.1082 50.3148L32.8399 54.7827C32.3816 55.6991 31.9234 56.7073 31.4652 57.8071C31.0069 58.861 30.5945 60.0295 30.2279 61.3126C30.0446 62.5499 29.2198 63.1685 27.7534 63.1685C26.8369 63.1685 26.3786 62.8707 26.3786 62.2749C26.3786 60.3503 28.5324 55.6533 32.8399 48.1839C30.5028 48.5505 29.5176 48.8713 29.8842 49.1462C29.9759 49.2379 30.0217 49.3066 30.0217 49.3525C30.0217 49.4441 29.9759 49.4899 29.8842 49.4899C29.7009 49.4899 29.3114 49.3295 28.7157 49.0088C27.8909 48.5047 27.4784 48.0006 27.4784 47.4966C27.4784 46.9467 28.1887 46.5113 29.6093 46.1906C30.3883 46.0989 31.1673 46.0073 31.9463 45.9156C32.7253 45.7782 33.5273 45.6178 34.3521 45.4345C36.5058 41.7685 38.1784 38.8816 39.3699 36.7737C40.6071 34.6657 41.3861 33.3139 41.7069 32.7182C44.4564 27.4026 45.8311 23.5533 45.8311 21.1704C45.8311 19.7957 45.4187 18.8334 44.5939 18.2835C43.2191 17.3212 41.6153 16.84 39.7823 16.84C36.8037 16.84 31.763 18.2835 24.6602 21.1704C20.9485 22.6368 17.2825 25.1572 13.6624 28.7315C9.85894 32.5349 7.95723 35.7884 7.95723 38.4921C7.95723 39.9126 8.57586 41.0812 9.81312 41.9976C11.5086 43.1891 13.2729 43.7848 15.1058 43.7848C15.6099 43.7848 16.1827 43.739 16.8243 43.6473C17.4658 43.5557 17.8324 43.5098 17.924 43.5098C18.1532 43.5098 18.2677 43.5786 18.2677 43.7161C18.2677 43.8535 18.199 44.0368 18.0615 44.2659C17.7866 44.8158 16.5264 45.0908 14.281 45.0908C12.1273 45.0908 10.4088 44.7242 9.12575 43.991C6.60541 42.5704 5.34524 40.4396 5.34524 37.5985C5.34524 36.0863 5.80348 34.6199 6.71997 33.1993C10.615 27.5629 16.893 22.843 25.5538 19.0396C31.8318 16.2443 37.6744 14.8467 43.0817 14.8467C47.4808 14.8467 49.8408 16.2443 50.1615 19.0396C50.2532 19.6811 49.8866 21.0101 49.0617 23.0263C48.2827 24.9968 47.0226 27.6088 45.2812 30.8623L37.239 45.7094H38.82C39.5532 45.7094 40.1489 45.6865 40.6071 45.6407C41.1112 45.5949 41.5236 45.5719 41.8444 45.5719H45.4187C49.2221 45.5719 53.942 45.6407 59.5784 45.7782C59.7617 45.3199 60.2658 44.1743 61.0907 42.3413C61.9155 40.4625 63.1069 37.8734 64.665 34.5741C66.6812 30.2666 69.3161 26.4861 72.5697 23.2325C76.1898 19.6124 79.4662 17.8023 82.399 17.8023C83.2697 17.8023 84.1174 17.9856 84.9423 18.3522C85.1714 18.4439 85.3776 18.5355 85.5609 18.6272C85.79 18.673 85.9962 18.7417 86.1795 18.8334C86.8669 19.1083 87.2335 19.452 87.2793 19.8644C87.4168 20.7809 87.2793 21.6745 86.8669 22.5452C86.5003 23.37 86.1566 23.7824 85.8358 23.7824C85.6525 23.7824 85.5609 23.645 85.5609 23.37C85.5609 23.0951 85.6067 22.6368 85.6984 21.9953C85.8358 21.3537 85.9046 20.9184 85.9046 20.6893C85.9046 20.2769 85.8129 19.979 85.6296 19.7957C84.8964 19.0625 84.0029 18.6959 82.9489 18.6959C80.9784 18.6959 78.7101 19.9561 76.144 22.4764C73.5778 24.9968 71.1262 28.4336 68.7892 32.7869C66.9562 36.1779 65.5585 38.9503 64.5962 41.1041C63.6339 43.212 63.0611 44.7242 62.8778 45.6407C63.3819 45.5949 63.8401 45.5719 64.2525 45.5719C64.665 45.5719 65.0545 45.5719 65.4211 45.5719C67.7581 45.5719 69.339 45.7323 70.1639 46.0531C70.3472 46.0989 70.4388 46.1677 70.4388 46.2593C70.4388 46.7634 69.6598 47.0383 68.1018 47.0842C67.1395 47.13 66.1772 47.1529 65.2148 47.1529C64.2525 47.1529 63.3131 47.1529 62.3966 47.1529C61.8009 48.6193 61.2052 50.2231 60.6095 51.9645C60.0138 53.66 59.441 55.4471 58.8911 57.3259C57.7455 61.4501 57.1727 64.5433 57.1727 66.6054C57.1727 67.0636 57.2643 67.5448 57.4476 68.0488C57.6309 68.5987 57.7226 68.9653 57.7226 69.1486C57.7226 69.7902 57.2643 70.1109 56.3478 70.1109ZM73.5384 62.5499C72.2095 62.5499 71.041 62.2291 70.0329 61.5876C68.7039 60.6711 68.0395 59.3422 68.0395 57.6009C68.0395 55.7221 68.8414 53.4308 70.4453 50.7272C72.599 47.1987 75.7609 44.1056 79.9309 41.4477C80.9849 40.7604 82.0389 40.4167 83.0928 40.4167C84.4675 40.4167 85.4528 40.852 86.0485 41.7227C86.4151 42.2268 86.5984 42.7996 86.5984 43.4411C86.5984 45.3657 85.0404 47.4737 81.9243 49.7649C81.0078 50.4064 80.0226 51.0021 78.9686 51.552C77.9605 52.0561 76.8607 52.4227 75.6693 52.6518L72.7136 53.2704C71.6138 55.2409 71.0639 56.8906 71.0639 58.2195C71.0639 60.0525 72.1408 60.969 74.2945 60.969C75.99 60.969 78.0521 60.2587 80.4808 58.8381C83.7344 56.9593 86.5296 54.3473 88.8667 51.0021C89.2333 50.4522 89.577 50.1773 89.8977 50.1773C90.0352 50.1773 90.104 50.2689 90.104 50.4522C90.104 50.6814 89.9436 51.0251 89.6228 51.4833C85.1778 58.1737 80.1601 61.8396 74.5695 62.4812C74.3862 62.527 74.2029 62.5499 74.0196 62.5499C73.8821 62.5499 73.7217 62.5499 73.5384 62.5499ZM73.5384 52.1019C74.8215 52.1019 76.4712 51.5291 78.4875 50.3835C81.3286 48.7797 83.3219 46.7176 84.4675 44.1972C84.7883 43.5557 84.9487 43.0287 84.9487 42.6163C84.9487 42.2038 84.7883 41.9976 84.4675 41.9976C83.8718 41.9976 82.6575 42.7308 80.8245 44.1972C79.4956 45.3428 78.1896 46.5801 76.9065 47.909C75.6693 49.1921 74.4778 50.5668 73.3322 52.0332C73.2864 52.079 73.3551 52.1019 73.5384 52.1019ZM91.8191 63.306C88.5656 62.6186 86.9388 61.1064 86.9388 58.7694C86.9388 57.3946 87.3742 55.4013 88.2448 52.7893C88.8864 50.8188 89.757 48.5734 90.8568 46.0531C92.0024 43.4869 93.423 40.6458 95.1185 37.5298C99.1969 29.8771 102.29 25.8904 104.398 25.5696C104.581 25.5238 104.879 25.5008 105.292 25.5008C107.537 25.5008 108.66 26.5548 108.66 28.6627C108.66 31.5497 106.231 35.651 101.374 40.9666C98.6699 43.991 95.6913 46.6717 92.4378 49.0088C90.5131 53.5912 89.5508 56.9593 89.5508 59.1131C89.5508 60.5336 89.9862 61.3814 90.8568 61.6563C91.5442 61.8396 93.148 61.0148 95.6684 59.1818C98.5553 57.0739 101.03 54.5077 103.092 51.4833C103.413 51.0251 103.711 50.7959 103.986 50.7959C104.169 50.7959 104.26 50.8876 104.26 51.0709C104.26 51.2542 104.146 51.5291 103.917 51.8957C102.175 54.691 99.9072 57.3488 97.1119 59.8692C94.4082 62.3437 92.644 63.4893 91.8191 63.306ZM93.1939 47.1529C94.8436 45.9156 96.2183 44.6784 97.3181 43.4411L101.374 38.6295C105.131 34.1846 107.01 30.9081 107.01 28.8002C107.01 28.3878 106.781 28.1816 106.323 28.1816C105.544 28.1816 104.306 29.3043 102.611 31.5497C102.107 32.2829 101.58 32.9931 101.03 33.6805C100.48 34.3679 99.9301 35.0782 99.3802 35.8113C98.6928 36.8195 98.0513 37.8047 97.4555 38.767C96.9057 39.7293 96.3787 40.7146 95.8746 41.7227C95.7371 41.906 95.4393 42.4559 94.981 43.3724C94.5686 44.2889 93.9729 45.549 93.1939 47.1529ZM105.781 63.306C102.528 62.6186 100.901 61.1064 100.901 58.7694C100.901 57.3946 101.336 55.4013 102.207 52.7893C102.849 50.8188 103.719 48.5734 104.819 46.0531C105.965 43.4869 107.385 40.6458 109.081 37.5298C113.159 29.8771 116.252 25.8904 118.36 25.5696C118.543 25.5238 118.841 25.5008 119.254 25.5008C121.499 25.5008 122.622 26.5548 122.622 28.6627C122.622 31.5497 120.193 35.651 115.336 40.9666C112.632 43.991 109.653 46.6717 106.4 49.0088C104.475 53.5912 103.513 56.9593 103.513 59.1131C103.513 60.5336 103.948 61.3814 104.819 61.6563C105.506 61.8396 107.11 61.0148 109.631 59.1818C112.517 57.0739 114.992 54.5077 117.054 51.4833C117.375 51.0251 117.673 50.7959 117.948 50.7959C118.131 50.7959 118.223 50.8876 118.223 51.0709C118.223 51.2542 118.108 51.5291 117.879 51.8957C116.138 54.691 113.869 57.3488 111.074 59.8692C108.37 62.3437 106.606 63.4893 105.781 63.306ZM107.156 47.1529C108.806 45.9156 110.18 44.6784 111.28 43.4411L115.336 38.6295C119.093 34.1846 120.972 30.9081 120.972 28.8002C120.972 28.3878 120.743 28.1816 120.285 28.1816C119.506 28.1816 118.268 29.3043 116.573 31.5497C116.069 32.2829 115.542 32.9931 114.992 33.6805C114.442 34.3679 113.892 35.0782 113.342 35.8113C112.655 36.8195 112.013 37.8047 111.418 38.767C110.868 39.7293 110.341 40.7146 109.837 41.7227C109.699 41.906 109.401 42.4559 108.943 43.3724C108.531 44.2889 107.935 45.549 107.156 47.1529ZM119.95 62.7561C116.604 62.7561 114.932 60.694 114.932 56.5698C114.932 52.4456 116.582 48.5047 119.881 44.7471C119.927 44.7013 119.904 44.5409 119.812 44.2659C119.72 43.9452 119.675 43.7161 119.675 43.5786C119.675 43.3036 119.766 43.0974 119.95 42.96C121.553 41.6769 123.432 41.0353 125.586 41.0353C126.182 41.0353 126.663 41.1499 127.029 41.379C127.488 41.5623 127.923 41.7456 128.335 41.9289C128.748 42.1122 129.137 42.3184 129.504 42.5475C131.245 43.6015 132.46 44.7013 133.147 45.8469C134.293 45.8011 135.255 45.7552 136.034 45.7094C136.813 45.6636 137.409 45.6178 137.821 45.5719H138.096C138.509 45.5719 138.715 45.7323 138.715 46.0531C138.715 46.1447 138.623 46.2135 138.44 46.2593C137.936 46.351 137.271 46.4655 136.446 46.603C135.667 46.7405 134.705 46.8779 133.559 47.0154C133.697 47.3362 133.766 47.7028 133.766 48.1152C133.766 48.436 133.743 48.6651 133.697 48.8026C133.01 52.5143 131.2 55.7679 128.267 58.5632C125.426 61.3585 122.653 62.7561 119.95 62.7561ZM131.497 45.8469C130.764 44.7013 129.321 44.1285 127.167 44.1285C125.517 44.1285 124.44 44.3118 123.936 44.6784C123.799 44.7242 123.661 44.8158 123.524 44.9533C123.386 45.0908 123.226 45.2512 123.043 45.4345C125.609 45.7552 128.427 45.8927 131.497 45.8469ZM120.156 61.6563C122.172 61.6563 124.486 60.2128 127.098 57.3259C129.756 54.439 131.337 51.6437 131.841 48.94C131.887 48.7109 131.91 48.5276 131.91 48.3901C131.956 48.2068 131.979 48.0465 131.979 47.909C131.979 47.634 131.933 47.3591 131.841 47.0842C130.97 47.13 130.077 47.1529 129.16 47.1529C128.244 47.1529 127.327 47.1529 126.411 47.1529C125.494 47.1529 124.647 47.1529 123.868 47.1529C123.134 47.1529 122.47 47.13 121.874 47.0842C120.041 49.5587 118.896 51.552 118.437 53.0642C117.888 54.7597 117.613 56.3865 117.613 57.9445C117.613 60.4191 118.46 61.6563 120.156 61.6563Z" fill="black"/>
<path d="M53.5003 50.9999H40.0003L33.5003 66.4999C30.5003 67.6666 27.5004 69.9999 21.5003 66.4999C20.8336 60.6666 20.4003 48.4999 24.0003 46.4999C19.667 48.9999 9.70044 52.4999 4.50044 46.4999C2.16711 44.4999 -1.59956 38.6999 2.00044 31.4999C7.33363 21.9999 24.0003 8.49995 48 11.9999C53.3333 12.9999 59.9 20.3999 43.5 41.9999H57C61.3333 31.1666 72.6 10.5999 83 14.9999C87 15.8333 93.8 18.8999 89 24.4999C88 26.1666 85.7 28.3 84.5 27.5C83 26.5 80.5 25.9999 81 24.4999C77.8333 27.6666 71.6 34.8999 72 38.4999C76.3333 37.3333 85.9 35.9999 89.5 39.9999C90.6667 34.3333 95.8 22.9999 107 22.9999C108.5 23.4999 111.6 24.8999 112 26.4999C114.333 23.9999 120.3 20.5999 125.5 26.9999C126.167 29.6666 126.2 35.7999 121 38.9999C124.167 38.1666 131.3 37.8999 134.5 43.4999C140.333 43.4999 149 46 135.5 48.9999C135.667 53.9999 132.5 64.2999 118.5 65.4999C117.167 64.9999 114.3 63.2999 113.5 60.4999C110 64.6666 102.3 70.4999 99.5 60.4999C95.8333 64.6666 87.8 70.3999 85 59.9999C81 64.8333 71.1 71.5999 63.5 59.9999C61.8333 61.1666 59 64.9999 61 70.9999C55.1669 74.6666 45.5005 75.8 53.5003 50.9999Z" stroke="black" stroke-opacity="0.5" stroke-linecap="round" stroke-linejoin="round" stroke-dasharray="2 2"/>
</svg>
