<svg width="23" height="24" viewBox="0 0 23 24" fill="none" xmlns="http://www.w3.org/2000/svg">
<path d="M17.061 20.0995C17.061 20.763 17.5873 21.2893 18.2508 21.2893C18.9143 21.2893 19.4406 20.763 19.4406 20.0995C19.4406 19.436 18.8914 18.9098 18.2508 18.9098C17.6102 18.9098 17.061 19.436 17.061 20.0995ZM5.0948 4.12929H22.0489C22.4836 4.12929 22.8268 4.51825 22.7582 4.93009L22.026 10.9018C21.8658 12.2059 20.7447 13.1898 19.4177 13.1898H6.9252L7.06248 13.8533C7.24552 14.86 8.13784 15.5693 9.16744 15.5693H20.1498C20.5388 15.5693 20.8591 15.8896 20.8591 16.2786C20.8591 16.6675 20.5388 17.0107 20.1498 17.0107H9.14456C7.45144 17.0107 5.96424 15.7981 5.64392 14.1278L3.35592 2.71073H1.0908C0.701843 2.71073 0.358643 2.39041 0.358643 1.97857C0.358643 1.56673 0.701843 1.26929 1.0908 1.26929H3.9508C4.294 1.26929 4.59144 1.52097 4.66008 1.84129L5.0948 4.12929ZM5.39224 5.57073L6.62776 11.7712H19.4177C20.0126 11.7712 20.5159 11.3136 20.6074 10.7187L21.2481 5.57073H5.39224ZM15.6196 20.0995C15.6196 18.6581 16.7865 17.4912 18.2508 17.4912C19.7151 17.4912 20.8591 18.6581 20.8591 20.0995C20.8591 21.541 19.6922 22.7307 18.2508 22.7307C16.8094 22.7307 15.6196 21.5638 15.6196 20.0995ZM6.07864 20.0995C6.07864 18.6581 7.2684 17.4912 8.70984 17.4912C10.1513 17.4912 11.341 18.6581 11.341 20.0995C11.341 21.541 10.1513 22.7307 8.70984 22.7307C7.2684 22.7307 6.07864 21.5638 6.07864 20.0995ZM7.52008 20.0995C7.52008 20.763 8.04632 21.2893 8.70984 21.2893C9.37336 21.2893 9.8996 20.763 9.8996 20.0995C9.8996 19.436 9.37336 18.9098 8.70984 18.9098C8.04632 18.9098 7.52008 19.436 7.52008 20.0995Z" fill="white"/>
</svg>
