<svg width="95" height="37" viewBox="0 0 95 37" fill="none" xmlns="http://www.w3.org/2000/svg">
<path d="M0.52 28.9999C0.44 28.9999 0.36 28.9599 0.28 28.8799L0.2 28.7599L0.12 28.8399L0.04 28.7999L0 28.3199L0.04 27.1199C0.16 26.6799 0.04 26.9999 0.24 26.1999C0.28 25.9999 0.28 25.8799 0.32 25.8799C0.36 25.8399 0.36 25.7599 0.36 25.7199C0.36 25.3199 0.36 25.5199 0.44 25.1199C0.48 24.9999 0.48 24.8799 0.52 24.8399C0.52 24.7599 0.56 24.6399 0.6 24.5599C0.8 23.9599 0.6 24.2399 0.84 23.6799C0.88 23.6399 0.92 23.5199 0.92 23.4399C0.92 23.3599 0.96 23.1999 1.04 23.0399L1.16 22.5999C1.16 22.5999 1.2 22.5599 1.2 22.4799C1.2 22.4399 1.24 22.3599 1.28 22.3599V22.2799C1.28 22.2399 1.28 22.1599 1.32 22.1199C1.36 22.0799 1.36 21.9999 1.36 21.9999C1.52 20.9999 1.48 21.3999 2 20.2799C2.04 20.1599 2.12 19.9999 2.12 19.9199C2.12 19.8799 2.16 19.7199 2.24 19.5999C2.28 19.4799 2.36 19.2799 2.44 19.1599L2.48 18.9199C2.48 18.9199 2.48 18.8799 2.52 18.8799C2.6 18.7999 2.68 18.6399 2.68 18.5599V18.5199C2.68 18.4799 2.68 18.4799 2.72 18.4799C3.68 16.3999 3.2 17.3599 4.28 15.2799C4.32 15.2399 4.32 15.1599 4.32 15.1199C4.32 15.0799 4.36 14.9599 4.44 14.8399L4.52 14.5999L4.48 14.5599C4.56 14.4799 4.6 14.4799 4.6 14.3199L4.8 13.7599C4.84 13.7599 4.84 13.7199 4.84 13.6799C4.84 13.5599 5 13.1599 5.04 13.1599C5.08 13.1599 5.08 13.1199 5.08 13.0799C5.08 12.3599 5.24 12.7199 5.44 11.9199C5.44 11.8399 5.52 11.8799 5.52 11.7999C5.52 11.7199 5.6 11.6799 5.6 11.5999C5.6 11.5199 5.64 11.3599 5.72 11.2399C5.88 10.7199 5.8 10.5599 6.04 10.4399C6.08 10.3999 6.08 10.3199 6.08 10.2799C6.08 10.1999 6.12 10.0399 6.2 9.87993C6.28 9.75993 6.36 9.55993 6.36 9.47993C6.36 9.39993 6.4 9.31993 6.44 9.27993C6.48 9.27993 6.52 9.11993 6.6 8.95993C6.8 8.35993 7.24 7.51993 7.24 7.43993C7.24 7.39993 7.28 7.35993 7.32 7.35993C7.36 7.35993 7.36 7.31993 7.36 7.27993C7.48 6.99993 7.6 6.95993 7.6 6.75993C8.88 3.95993 8.52 4.43993 9.56 2.75993C9.88 2.27993 10.12 2.15993 10.48 2.15993C10.68 2.15993 11.04 2.43993 11.04 2.59993C11.04 2.75993 10.68 3.43993 10.6 3.43993C10.56 3.47993 10.4 3.67993 10.28 3.91993C9.92 4.67993 9.44 5.59993 9.32 5.75993C9.12 6.03993 8.48 7.39993 8.44 7.59993C8.44 7.71993 8.4 7.83993 8.36 7.83993C8.28 7.87993 8.2 8.07993 8.2 8.15993C8.08 8.39993 8.12 8.27993 8.08 8.55993C8.08 8.59993 8.04 8.63993 8 8.63993C7.96 8.71993 7.96 8.67993 7.96 8.75993C7.96 8.75993 7.96 8.83993 7.92 8.83993C7.88 8.87993 7.8 8.91993 7.8 8.99993C7.8 9.07993 7.84 9.03993 7.84 9.11993L7.64 9.63993L7.6 9.59993H7.52L7.56 9.75993C7.56 9.79993 7.56 9.83993 7.52 9.83993C7.48 9.83993 7.48 9.87993 7.48 9.91993V9.95993C7.48 9.99993 7.48 10.0799 7.4 10.0799L7.36 10.1999C7.36 10.2399 7.36 10.2799 7.28 10.3199L7.24 10.4399C7.32 10.4399 7.32 10.4399 7.4 10.3599C7.6 10.1199 7.44 10.2399 7.72 9.95993C7.96 9.63993 8.48 8.95993 8.48 8.91993L9.36 7.87993C9.44 7.83993 9.48 7.75993 9.48 7.71993C9.8 7.23993 9.64 7.51993 10.08 7.03993C11.12 5.87993 12.04 4.91993 13.08 4.07993C13.52 3.67993 14 3.31993 14.08 3.27993C14.96 2.55993 16.2 1.79993 17.4 1.27993C18.36 0.879931 19 0.719931 19.72 0.679932C20.72 0.679932 21.28 0.759933 21.8 1.27993C22.16 1.63993 22.36 1.95993 22.6 2.55993C22.84 3.15993 22.92 3.67993 22.92 4.59993C22.88 5.47993 22.84 5.71993 22.72 6.19993C22.52 7.11993 22.6 6.71993 22.32 7.59993L22.36 7.63993C22.32 7.79993 22.24 7.75993 22.24 7.99993V8.07993L22.16 8.03993V8.19993C22.12 8.19993 22.08 8.23993 22.04 8.31993L21.84 8.95993L21.88 9.03993L21.8 8.99993C21.76 8.99993 21.76 8.99993 21.76 9.03993V9.11993C21.6 9.27993 21.68 9.19993 21.56 9.43993C21.56 9.51993 21.56 9.55993 21.52 9.55993C21.48 9.55993 21.36 9.83993 21.36 9.95993C21.36 9.99993 21.32 10.0399 21.28 10.0399C21.24 10.1199 21.24 10.0799 21.24 10.1599C21.24 10.1999 21.24 10.2399 21.16 10.2799C21.08 10.3999 21.04 10.4399 21.04 10.5199L20.84 10.8399C20.84 10.9599 20.48 11.2799 20.48 11.3599C20.48 11.4399 20.08 11.9999 20 12.1199C19.88 12.2799 19.8 12.2799 19.8 12.3999C19.8 12.4399 19.8 12.4799 19.76 12.4799C19.52 12.7599 19.64 12.5999 19.48 12.9199C19.44 12.9199 19.44 12.9199 19.44 12.9599C19.44 13.0399 19.44 12.9999 19.36 13.0799C19.32 13.0799 19.24 13.1199 19.24 13.1599C19.24 13.1599 19.2 13.2799 19.08 13.3999C18.12 14.5199 17.8 14.9199 16.68 16.0399C16 16.7199 15.76 16.9199 15.68 16.9199H15.64C15.6 16.9199 15.6 16.9199 15.6 16.9599C15.6 17.0399 15.36 17.2799 14.8 17.7199C14.44 17.9999 13.64 18.6399 13.24 18.8399C11.44 19.8399 10.6 20.2399 9.08 20.2399C8.6 20.2399 8.16 20.1599 7.76 19.9999C7 19.7199 6.32 18.9199 6.12 18.1199C6 17.7599 5.96 17.5999 5.96 16.8399C5.96 16.4799 6 16.1199 6.04 15.8799C6.08 15.4799 6.16 15.2399 6.24 15.2399H6.28L6.32 15.4799L6.28 16.4399C6.28 17.1599 6.44 17.9199 6.64 18.2799C6.92 18.8399 7.2 19.0799 7.76 19.3599C8.04 19.4799 8.4 19.5599 8.84 19.5599C9.8 19.5599 11.08 19.1999 12.16 18.5199C12.76 18.1599 13.88 17.3599 14 17.1999C14.04 17.1999 14.2 17.0399 14.4 16.8799C15 16.3599 15.44 15.9999 16.84 14.5199C17.44 13.9199 18.92 12.0399 18.92 11.9199C18.92 11.8799 18.96 11.8799 18.96 11.8799C19 11.8799 19.04 11.7999 19.12 11.6799C19.16 11.5599 19.28 11.4399 19.36 11.3999C19.4 11.3199 19.48 11.2399 19.48 11.1999C19.48 11.0799 19.64 10.8799 19.8 10.8399L19.88 10.7999L19.8 10.6799C20.04 10.2399 20.2 9.91993 20.28 9.91993C20.28 9.75993 20.6 9.07993 20.72 9.07993V9.03993C20.72 8.99993 20.72 8.87993 20.8 8.79993C20.88 8.71993 20.92 8.59993 20.92 8.51993C20.92 8.47993 20.96 8.39993 21.04 8.35993H21.12L21.04 8.23993C21.12 8.15993 21.16 8.03993 21.24 7.79993C21.6 7.11993 21.4 7.43993 21.68 6.67993L21.64 6.63993C21.84 6.39993 21.76 6.31993 21.84 6.15993L22 5.23993C22.08 4.95993 22.12 4.63993 22.12 4.27993C22.12 3.83993 22.04 3.39993 21.96 3.11993C21.92 2.83993 21.88 2.95993 21.88 2.67993C21.88 2.63993 21.84 2.59993 21.8 2.55993L21.64 2.35993L21.68 2.31993L21.76 2.35993C21.72 2.31993 21.72 2.27993 21.64 2.27993C21.6 2.27993 21.36 2.07993 21.36 1.99993C21.36 1.95993 21.24 1.87993 21.12 1.75993C20.84 1.55993 20.36 1.43993 19.88 1.43993C19.16 1.51993 18.4 1.67993 17.8 1.87993C16.92 2.27993 16.24 2.67993 15.48 3.15993C13.92 4.23993 14.68 3.67993 13.16 4.95993C12.32 5.75993 10.56 7.51993 10.04 8.23993C9.96 8.27993 9.84 8.43993 9.76 8.55993L8.72 9.87993C8.56 10.1199 8.4 10.2799 8.4 10.3199C8.16 10.6399 7.44 11.6799 7.44 11.7199C7.44 11.7599 7.36 11.8399 7.28 11.9599C7.12 12.1599 6.12 13.7999 5.8 14.3599C5.72 14.5199 5.64 14.7199 5.64 14.7999C5.64 14.8799 5.6 14.9599 5.56 14.9599L5.48 15.1199C5.48 15.1599 5.48 15.1999 5.44 15.1999C5.4 15.1999 5.4 15.2399 5.4 15.3199V15.3599C5.4 15.3999 5.4 15.4399 5.36 15.4399C5.24 15.6399 5.32 15.5599 5.24 15.7599L5.16 15.8399L5.2 15.8799H5.28C5.12 15.9599 5.2 15.9199 5.12 16.0799V16.1199C5.12 16.1599 5.12 16.1999 5.08 16.1999C4.96 16.3199 4.88 16.5599 4.88 16.7999C4.88 16.8799 4.84 16.9199 4.76 16.9199L4.72 16.9599L4.8 17.0799H4.76C4.76 17.4399 4.72 17.2799 4.52 17.7199C4.52 17.7599 4.52 17.8399 4.44 17.8799C4.4 17.9199 4.4 17.9999 4.4 18.0399C4.32 18.3199 4.36 18.1599 4.24 18.4399C4.24 18.6799 4.2 18.5599 4.12 18.7599C4.12 18.8799 4.08 18.9599 4.08 18.9599C4 19.1999 3.92 19.2399 3.92 19.4399C3.92 19.5199 3.88 19.5599 3.84 19.5999C3.84 19.5999 3.84 19.6399 3.88 19.6399H3.92C3.84 19.7199 3.76 19.7599 3.76 19.8399C3.76 19.8799 3.76 19.9599 3.72 20.0399C3.64 20.3599 3.72 20.1999 3.56 20.5199C3.52 20.5199 3.48 20.5999 3.44 20.6799C3.44 20.7999 3.44 20.7999 3.48 20.7999H3.52C3.4 20.9199 3.36 20.9999 3.36 21.1999C3.36 21.2799 3.28 21.3999 3.28 21.3999C3.24 21.4399 3.2 21.4799 3.2 21.5199C3.16 21.6799 3.08 21.6799 3.08 21.9199C3.04 22.1599 2.92 22.3599 2.92 22.5599C2.92 22.5999 2.92 22.6399 2.88 22.6399C2.84 22.6399 2.8 22.7199 2.8 22.8799L2.76 23.0399C2.76 23.0399 2.76 23.0799 2.68 23.1599L2.76 23.3199C2.68 23.3999 2.56 23.4399 2.44 24.1199C2.36 24.3999 2.24 24.5199 2.24 24.5199C2.24 24.5599 2.32 24.5599 2.32 24.5599L2.36 24.5199L2.28 24.6399L2.32 24.6799C2.32 24.6799 2.32 24.7199 2.24 24.7599C2.16 24.8399 2.12 24.9999 2.08 25.3199L2.04 25.5199L2 25.5599H2.08C2 25.7199 1.96 25.7999 1.96 25.8799C1.92 25.9599 1.96 26.0399 1.88 26.0399C1.84 26.0399 1.84 26.0799 1.84 26.1999C1.84 26.2799 1.84 26.3599 1.8 26.3999L1.72 26.4399L1.8 26.5599C1.72 26.6399 1.68 26.6399 1.68 26.9199C1.68 27.0399 1.68 27.1199 1.64 27.1199H1.6C1.6 27.1199 1.56 27.1599 1.56 27.2399C1.56 27.3599 1.56 27.4399 1.48 27.5199L1.44 27.5599L1.52 27.5999C1.4 27.7999 1.36 27.8799 1.36 28.0399C1.36 28.1599 1.36 28.2399 1.32 28.2799C1.28 28.2799 1.28 28.3199 1.28 28.3599V28.3999L1.32 28.3599L1.36 28.3999C1.28 28.4799 1.2 28.5999 1.16 28.5999H1.12L1.2 28.7199L1.04 28.8399L1 28.7999L0.92 28.8799L0.8 28.8399C0.68 28.9199 0.64 28.9999 0.52 28.9999Z" fill="black"/>
<path d="M22.6959 14.5999C22.7359 14.5999 22.9759 14.4399 23.2559 14.2399C25.2959 12.5199 24.2559 13.2799 26.2159 11.6799C26.2159 11.5999 27.0159 10.9199 27.0959 10.9199L27.1359 10.9599C27.1359 10.7999 27.4959 10.5999 29.2959 8.63993C29.5759 8.35993 30.1759 7.47993 30.1759 7.43993V7.39993C30.3759 7.19993 30.2559 7.19993 30.3759 7.07993C30.4159 7.07993 30.4559 6.99993 30.4559 6.95993V6.91993L30.5359 6.87993H30.4959C30.4959 6.79993 30.6559 6.71993 30.6559 6.59993V6.51993C30.6559 6.27993 30.6559 6.31993 30.7759 6.15993C30.7759 6.07993 30.6959 6.03993 30.6159 6.03993C30.2159 6.03993 29.7359 6.43993 29.4159 6.67993C27.4959 7.83993 25.4559 10.3999 25.0159 11.0799C25.0159 11.1199 25.0159 11.1599 24.9759 11.1599L24.4159 11.9199C23.8159 13.1199 23.7359 12.9199 23.4559 13.3999C23.4159 13.3999 23.3759 13.4799 23.2959 13.5999L22.8159 14.4399C22.7359 14.4799 22.6959 14.5599 22.6959 14.5999ZM25.4959 23.6799C24.6559 23.6799 23.9359 23.2399 23.4159 22.3999C23.2159 21.9999 23.0959 21.3599 23.0959 21.0799C23.0959 20.9599 23.0959 20.9599 23.0159 20.9599L23.1359 20.8399C23.0559 20.8399 23.0159 20.7999 23.0159 20.7599H23.0959C23.0959 20.7599 23.1359 20.7599 23.1359 20.7199C23.0959 20.6799 23.0559 20.6799 23.0559 20.5999C23.0559 20.5199 23.0559 20.4799 23.1359 20.4799C23.0559 20.4799 23.0159 20.4799 23.0159 20.3999L23.0559 20.3599L23.0959 20.3999C23.0959 20.3999 23.1359 20.3999 23.1359 20.3599C23.1359 20.2799 23.0559 20.3199 23.0159 20.2399C23.0559 20.1599 23.1359 20.1599 23.1359 20.0799L23.0959 19.9199C23.0959 19.5999 23.0959 19.6399 23.2159 19.5999C23.0959 19.5599 23.1359 19.5599 23.0959 19.4799L23.1359 19.4399V18.9599L23.2159 18.9999V18.9199C23.2159 18.8799 23.2159 18.8399 23.2559 18.7999C23.2559 18.7999 23.1759 18.7999 23.1759 18.7199C23.1759 18.5999 23.2159 18.6399 23.2959 18.5999L23.1759 18.5199C23.2959 18.5199 23.2959 18.5199 23.2959 18.3999V18.2799L23.3359 18.2399L23.2159 18.1199C23.3359 17.8399 23.2559 17.6399 23.4159 17.6399L23.2959 17.5999C23.0159 17.5999 20.8959 19.6799 18.7759 22.2799C18.0959 23.1199 17.8559 23.3599 17.7759 23.3999C17.6159 23.3999 17.5359 23.3199 17.3759 23.3199L17.2959 23.3599C17.1759 23.3599 17.2159 23.0399 17.0959 22.9199L17.2159 22.7599L17.1759 22.7199C17.1759 22.5199 17.7759 21.2399 18.5359 20.0799C18.7359 20.0799 18.7759 19.4799 18.9759 19.2799C19.2959 18.6799 19.3359 18.5999 19.4559 18.5999C19.4159 18.5999 19.4159 18.5999 19.4159 18.5599C19.4159 18.1999 20.1359 17.2399 20.2159 16.9999C20.2159 16.8399 20.7759 16.0399 20.7759 15.9999C20.6559 15.9999 20.5759 15.9999 20.5759 15.9199C20.5759 15.7999 21.1359 15.5199 21.1359 15.3999H21.0959C21.0959 15.1199 21.7759 14.4399 21.7759 14.2799C22.0559 13.7999 21.8559 13.9999 22.1759 13.6399H22.2559L22.2159 13.5599C22.2159 13.3599 23.2559 12.3999 23.4159 11.7599C24.3359 10.5599 24.0159 10.6799 25.4159 9.27993C25.4159 9.15993 26.6159 8.03993 26.6959 7.95993C26.6959 7.59993 28.0559 6.63993 28.0559 6.63993C28.0959 6.63993 28.2159 6.51993 28.3359 6.43993C29.0559 5.79993 30.0159 5.39993 30.1359 5.27993L30.1759 5.31993C30.2559 5.31993 30.2159 5.23993 30.6559 5.23993C31.3359 5.31993 31.4159 5.55993 31.4959 5.95993C31.4959 6.67993 31.2559 7.19993 30.6559 7.91993C30.5759 8.07993 30.4559 8.19993 30.4159 8.27993C28.9759 9.99993 27.3359 11.6399 24.2959 14.0799C24.0959 14.2799 22.1359 15.4799 22.1359 15.5999C21.9759 15.7599 21.9359 15.9999 21.8559 16.1599C21.6559 16.1599 21.6159 16.4399 21.3359 17.0399C21.1759 17.1999 21.0559 17.4399 20.6959 18.2399C20.1759 18.7599 20.4159 18.6399 20.1359 19.2399C20.0159 19.3599 19.8159 19.7199 19.8159 19.7999C19.8959 19.7999 20.3359 19.2799 20.3359 19.2799C20.4159 19.2799 20.4159 19.2399 20.4959 19.1599L20.4159 19.1999C20.4159 19.1599 21.5359 18.0399 22.0159 17.6399C22.3759 17.3199 22.1359 17.3999 22.5359 17.1999C22.5359 17.1999 23.1759 16.5599 23.5359 16.5599C23.9759 16.5599 24.0959 16.7999 24.0959 17.4399C24.0959 18.2799 23.8559 19.2799 23.7359 20.3599C23.7359 20.8399 23.8559 21.6399 24.0159 21.9999C24.4159 22.7599 24.8959 23.0799 25.5359 23.1199C27.1359 23.1199 29.3759 21.3599 32.0959 18.7999H32.1359C32.1359 18.8399 32.0159 18.9999 31.7759 19.3199C31.4159 19.6799 30.1359 20.9599 30.0959 20.9599L29.4159 21.5199C29.4159 21.5999 29.2559 21.5599 29.1759 21.7199C28.7359 22.1599 28.2959 22.2799 28.2959 22.3999C28.0959 22.7999 28.0159 22.5999 27.5359 22.8799C26.9759 23.2799 26.0159 23.6399 25.4959 23.6799Z" fill="black"/>
<path d="M31.6322 21.7999C31.8722 21.7199 31.8722 21.7599 31.8722 21.5999L31.9522 21.6399C31.9922 21.6399 31.9922 21.6399 31.9922 21.5999V21.5599C32.1922 21.1199 32.4322 20.9599 32.4322 20.9599H32.4722C32.4722 20.8799 32.5922 20.9599 32.5922 20.8399C32.5922 20.7199 32.7122 20.7199 32.7122 20.6799C32.7122 20.4799 32.7522 20.5999 32.8722 20.4399H32.8322C33.4322 19.9999 33.1922 20.0799 33.3122 19.9599L33.2322 19.9999L33.1922 19.9599C33.2722 19.7999 33.4322 19.8799 33.4322 19.7199C33.4322 19.6799 33.4322 19.6399 33.4722 19.6399C33.4722 19.5199 33.4722 19.5199 33.5122 19.5199H33.5522C33.5522 19.3999 33.7522 19.1599 33.9122 18.9999H33.8722L34.3522 18.1599C34.3922 18.1599 34.3922 18.1199 34.3922 18.0799L34.3522 18.0399C34.5522 17.7199 34.5922 17.3599 34.5922 16.9599C34.5922 16.7999 34.5522 16.7999 34.3922 16.7999C33.9122 16.7999 33.3922 17.1599 32.9122 17.4799C31.7522 18.3599 31.1922 19.4799 31.1922 19.6399C31.2722 19.6399 31.3522 19.5199 31.4722 19.2799C31.6322 19.2799 31.5122 19.1199 31.7522 18.9599C32.1522 18.4399 32.0722 18.5599 32.3122 18.4799C32.4722 18.4799 32.7522 18.6399 32.7522 18.8399C32.7522 19.0799 32.0722 19.8799 31.8722 20.3999C31.5922 21.0799 31.4322 21.3599 31.4322 21.5599C31.4322 21.6799 31.5522 21.7999 31.6322 21.7999ZM31.1922 19.7999C31.2322 19.7999 31.2722 19.7999 31.2722 19.7599L31.1922 19.7199C31.1522 19.7199 31.1522 19.7199 31.1522 19.7599C31.1522 19.7599 31.1522 19.7999 31.1922 19.7999ZM31.2722 23.0799C30.9922 23.0799 30.3922 22.9999 30.3922 22.1999C30.3922 21.7599 30.5122 21.6399 30.5922 21.1199C30.5522 20.8799 30.5122 20.8399 30.5122 20.5199C30.5122 19.8799 30.7522 18.9599 31.0322 18.6799C31.0722 18.3999 31.7922 17.5599 32.5522 17.0399C32.6722 16.9599 32.7922 16.8399 32.7922 16.7999H32.8322C32.9922 16.7999 33.0722 16.6799 33.1122 16.5599H33.1522L33.1122 16.5999V16.6799C33.4722 16.3999 33.4322 16.3999 33.6722 16.3999L33.6322 16.3599C33.6322 16.2799 34.0322 16.0799 34.6322 16.0799C35.2322 16.0799 35.3922 16.6799 35.3922 17.1599C35.3522 17.7599 35.1122 18.2799 35.1122 18.2799C35.1122 18.3599 34.7922 18.9599 34.5922 19.3199C34.1922 19.9999 33.2322 21.3199 32.7122 21.9199C32.6322 21.9999 32.5522 22.1199 32.5522 22.1599C32.5522 22.1999 32.6322 22.1999 32.7522 22.1999C33.9122 22.1999 35.1122 21.6799 36.3922 20.9199C37.2322 20.4399 38.0322 19.4799 39.1522 18.7999H39.1922C38.8722 19.1999 37.8322 20.0399 37.4722 20.2799C37.1122 20.5199 36.9922 20.6799 36.7122 20.8799C35.1522 21.9599 33.7122 22.5999 32.7922 22.5999C32.3522 22.5599 32.5922 22.5999 32.1522 22.5199C32.0322 22.5999 31.4722 22.9999 31.2722 23.0799Z" fill="black"/>
<path d="M36.9825 25.2799C36.7425 25.2799 36.4625 25.1999 36.4625 24.9999C37.5025 22.0399 37.5825 21.9199 39.7425 17.1999C39.7825 17.1999 39.7825 17.1999 39.7825 17.1599C39.7825 16.9999 39.8225 17.0799 39.9425 16.8399V16.6799C39.9425 16.5999 40.1825 16.5199 40.1825 16.2399C40.1825 16.1599 40.3425 16.1599 40.3425 16.0399C40.3425 15.9199 40.5425 15.7599 40.5425 15.7599L40.4625 15.7999V15.7599C40.4625 15.7199 40.7025 15.4399 40.7025 15.3599V15.3199C40.7025 15.2399 40.8625 15.1599 40.8625 15.0799L40.9025 14.8799H40.9825V14.7999C40.9825 14.7599 41.0625 14.7199 41.0625 14.7199V14.6799C41.2225 14.4399 41.1425 14.3999 41.3025 14.3599L41.2625 14.2799C41.2625 14.2399 41.3825 14.2399 41.3825 14.1599C41.3825 14.0399 41.5025 13.9599 41.5025 13.9199V13.8799C41.5025 13.8399 41.5825 13.8799 41.5825 13.7999L41.5425 13.7599C41.5425 13.7199 41.6225 13.7599 41.6225 13.5999C41.6225 13.5599 41.6225 13.5599 41.4625 13.5599C39.9825 13.6399 39.9825 13.6799 38.7425 13.6799C37.5025 13.6799 37.3425 13.4799 37.3425 13.2799C37.3425 13.0799 37.6225 12.8799 37.7825 12.8799C37.9425 12.8799 37.7425 13.1199 38.2225 13.1199L39.1825 13.0399C39.1825 12.9599 41.3025 12.8799 41.5025 12.8399L41.8225 12.8799C42.1825 12.8799 42.2625 12.6799 42.2625 12.6399C42.2625 12.5999 42.3025 12.5999 42.3825 12.4399C42.5025 12.2399 42.6225 12.2399 42.6225 12.1599V12.0399C42.6225 11.9599 42.7825 11.9999 42.7825 11.9199V11.8799C42.7825 11.7599 42.9825 11.6799 42.9825 11.6399C42.9825 11.5599 43.2625 11.3599 43.2625 11.2799H43.1825C43.1825 11.2799 43.2625 11.2399 43.2625 11.1999V11.1199C43.2625 11.0399 43.5825 10.9599 43.5825 10.8399V10.7599C43.5825 10.6799 43.8225 10.5999 43.8225 10.5199L44.5425 9.51993C44.5825 9.43993 44.5825 9.43993 44.6225 9.43993H44.6625C44.6625 9.35993 44.7425 9.23993 44.9025 9.23993L44.9825 9.27993C45.1025 9.19993 45.1425 9.15993 45.1825 9.15993C45.3025 9.15993 45.3425 9.35993 45.4625 9.35993C45.5025 9.35993 45.5425 9.35993 45.5425 9.39993C45.5425 9.43993 45.4625 9.55993 45.4625 9.75993C45.4625 10.1599 43.5425 12.2799 43.5425 12.6399C43.5425 12.6799 43.5825 12.7199 43.7025 12.7199C45.5025 12.5599 50.5825 12.0799 52.4625 12.0799C52.8225 12.0799 52.9425 12.0799 52.9425 12.1999C52.9425 12.3599 48.3425 12.6799 43.6625 13.2799C43.2625 13.3599 42.9425 13.4399 42.9425 13.4799L42.9825 13.5199L42.5425 14.2799C42.5025 14.2799 42.5025 14.3199 42.5025 14.3599C41.8625 15.3599 41.6625 15.7199 41.6625 15.7999H41.7025L41.1425 16.7199C40.9825 17.0399 40.7825 17.1199 40.7825 17.3599C40.7825 17.4399 40.5025 17.7599 40.5025 17.8799C40.5025 17.9999 40.3825 17.9199 40.3825 18.0799C40.3825 18.2399 40.3025 18.1199 40.3025 18.2399C40.3025 18.3599 40.1825 18.3199 40.1825 18.3599C40.0225 18.8399 38.8225 21.3999 38.0225 23.3599H38.0625C38.0225 23.5599 37.9025 23.6399 37.9025 23.7199V23.7999C37.9025 23.8399 37.8225 23.8799 37.8225 23.9599V24.0399C37.8225 24.0799 37.7025 24.1999 37.7025 24.2399V24.2799C37.7025 24.3599 37.5025 24.5999 37.5025 24.6799L37.5825 24.6399L37.5425 24.8399C37.5425 24.8399 37.5025 25.0799 37.3825 25.0799H37.3025V25.1599C37.3025 25.2399 37.1425 25.2799 36.9825 25.2799Z" fill="black"/>
<path d="M43.0775 21.7999C43.3175 21.7199 43.3175 21.7599 43.3175 21.5999L43.3975 21.6399C43.4375 21.6399 43.4375 21.6399 43.4375 21.5999V21.5599C43.6375 21.1199 43.8775 20.9599 43.8775 20.9599H43.9175C43.9175 20.8799 44.0375 20.9599 44.0375 20.8399C44.0375 20.7199 44.1575 20.7199 44.1575 20.6799C44.1575 20.4799 44.1975 20.5999 44.3175 20.4399H44.2775C44.8775 19.9999 44.6375 20.0799 44.7575 19.9599L44.6775 19.9999L44.6375 19.9599C44.7175 19.7999 44.8775 19.8799 44.8775 19.7199C44.8775 19.6799 44.8775 19.6399 44.9175 19.6399C44.9175 19.5199 44.9175 19.5199 44.9575 19.5199H44.9975C44.9975 19.3999 45.1975 19.1599 45.3575 18.9999H45.3175L45.7975 18.1599C45.8375 18.1599 45.8375 18.1199 45.8375 18.0799L45.7975 18.0399C45.9975 17.7199 46.0375 17.3599 46.0375 16.9599C46.0375 16.7999 45.9975 16.7999 45.8375 16.7999C45.3575 16.7999 44.8375 17.1599 44.3575 17.4799C43.1975 18.3599 42.6375 19.4799 42.6375 19.6399C42.7175 19.6399 42.7975 19.5199 42.9175 19.2799C43.0775 19.2799 42.9575 19.1199 43.1975 18.9599C43.5975 18.4399 43.5175 18.5599 43.7575 18.4799C43.9175 18.4799 44.1975 18.6399 44.1975 18.8399C44.1975 19.0799 43.5175 19.8799 43.3175 20.3999C43.0375 21.0799 42.8775 21.3599 42.8775 21.5599C42.8775 21.6799 42.9975 21.7999 43.0775 21.7999ZM42.6375 19.7999C42.6775 19.7999 42.7175 19.7999 42.7175 19.7599L42.6375 19.7199C42.5975 19.7199 42.5975 19.7199 42.5975 19.7599C42.5975 19.7599 42.5975 19.7999 42.6375 19.7999ZM42.7175 23.0799C42.4375 23.0799 41.8375 22.9999 41.8375 22.1999C41.8375 21.7599 41.9575 21.6399 42.0375 21.1199C41.9975 20.8799 41.9575 20.8399 41.9575 20.5199C41.9575 19.8799 42.1975 18.9599 42.4775 18.6799C42.5175 18.3999 43.2375 17.5599 43.9975 17.0399C44.1175 16.9599 44.2375 16.8399 44.2375 16.7999H44.2775C44.4375 16.7999 44.5175 16.6799 44.5575 16.5599H44.5975L44.5575 16.5999V16.6799C44.9175 16.3999 44.8775 16.3999 45.1175 16.3999L45.0775 16.3599C45.0775 16.2799 45.4775 16.0799 46.0775 16.0799C46.6775 16.0799 46.8375 16.6799 46.8375 17.1599C46.7975 17.7599 46.5575 18.2799 46.5575 18.2799C46.5575 18.3599 46.2375 18.9599 46.0375 19.3199C45.6375 19.9999 44.6775 21.3199 44.1575 21.9199C44.0775 21.9999 43.9975 22.1199 43.9975 22.1599C43.9975 22.1999 44.0775 22.1999 44.1975 22.1999C45.3575 22.1999 46.5575 21.6799 47.8375 20.9199C48.6775 20.4399 49.4775 19.4799 50.5975 18.7999H50.6375C50.3175 19.1999 49.2775 20.0399 48.9175 20.2799C48.5575 20.5199 48.4375 20.6799 48.1575 20.8799C46.5975 21.9599 45.1575 22.5999 44.2375 22.5999C43.7975 22.5599 44.0375 22.5999 43.5975 22.5199C43.4775 22.5999 42.9175 22.9999 42.7175 23.0799Z" fill="black"/>
<path d="M40.4678 35.6399C41.5878 35.5599 42.4678 35.3999 43.3478 34.7599C43.6278 34.5599 43.7078 34.6399 44.2678 34.1599C45.0278 33.6399 44.6678 33.7999 44.9478 33.5999C45.5478 33.0399 46.7078 31.8399 47.2678 31.1599C47.5878 30.6799 47.6678 30.7599 47.6678 30.6799C47.9478 30.0799 48.1878 29.9999 48.1878 29.9599C48.1878 29.9199 48.5878 29.3599 48.7078 29.2799C48.7078 29.1999 49.5078 28.0799 49.5078 28.0799C49.6278 28.0799 49.6678 27.8799 49.9878 27.4399C49.9878 27.3599 50.0678 27.3599 50.0678 27.2799C50.0678 27.2399 50.1078 27.1999 50.1478 27.1999C50.4278 26.6799 50.4678 26.8399 51.0678 25.7599L51.1078 25.7199L51.0678 25.6799C50.4678 25.8399 50.2278 25.9599 49.9478 26.1199C49.2678 26.3599 50.1478 25.9199 47.9078 26.9199C47.7878 26.9999 47.6278 27.0399 47.5078 27.0399C46.6678 27.4399 47.1078 27.2799 46.1878 27.6399C45.6278 27.9599 45.8278 27.7199 45.3878 28.0399C43.5078 29.0799 44.3878 28.5199 42.7878 29.6799C41.6278 30.6799 41.0278 31.1999 40.2278 32.3199C39.4278 33.6799 39.4278 33.8399 39.3078 34.1599L39.3478 34.1999C39.3478 34.3999 39.3078 34.3999 39.3078 34.7199C39.3478 35.1999 39.2678 35.3999 39.9478 35.5599C40.1078 35.6399 40.2278 35.6399 40.4678 35.6399ZM49.8678 21.6399C51.0278 20.7999 51.3078 20.5199 51.4278 20.5199C51.4678 20.5199 52.0278 19.9999 53.1878 18.8399C53.3478 18.6799 53.5078 18.5599 53.5478 18.5599C53.6678 18.3999 53.6678 18.3199 53.6678 18.3199C53.7878 18.3199 54.2278 17.9599 54.3078 17.8399L54.6278 17.4399C54.6278 17.3599 54.2678 17.2799 53.9878 17.1999C53.7078 17.2799 53.5478 17.3599 53.5478 17.4399H53.4678C53.3078 17.4399 53.0278 17.9999 52.7878 17.9999C52.7078 17.9999 52.5878 18.3199 52.5078 18.3199L52.5478 18.2799C52.5478 18.2399 52.5078 18.2399 52.4678 18.2399C52.3478 18.4799 52.2678 18.7199 52.1078 18.7199H52.0278V18.7599C52.0278 18.7999 51.9878 18.8799 51.9478 18.8799H51.9078C51.8678 18.8799 51.8678 18.8799 51.8678 18.9199V18.9599C51.8678 19.1199 51.7478 19.1599 51.6278 19.1599L51.6678 19.1999C51.6678 19.3199 51.4278 19.5199 51.1478 19.8399C51.1078 19.9199 51.0678 19.9199 51.0278 19.9199C50.9078 20.0799 50.9078 20.1599 50.8278 20.2399C50.7078 20.2399 50.7878 20.4799 50.5878 20.5599V20.5999C50.5878 20.6799 50.4278 20.7999 50.3478 20.7999L50.3878 20.8799C50.3078 20.9599 50.3478 20.9199 50.2278 20.9599C50.1478 20.9599 50.2278 21.0399 49.9878 21.2399L50.0678 21.2799C50.0678 21.3199 49.8278 21.4399 49.8278 21.4399C49.8678 21.4399 49.8678 21.4799 49.8678 21.5199V21.6399ZM40.4678 36.3199C39.1878 36.1999 39.0278 35.7599 38.9078 35.3599C38.8678 35.2399 38.8278 35.0799 38.8278 34.8799C38.8278 34.2799 39.1478 33.1999 39.4278 32.7599C39.4678 32.7199 39.5478 32.5999 39.5878 32.4799C40.9078 30.4799 42.5878 28.4399 48.9078 26.0799C51.9878 24.8799 51.3878 25.0399 51.7478 24.6799C51.9078 24.3599 52.1478 24.1199 52.1478 24.0399C52.1478 23.6399 52.7478 23.2399 52.7478 22.9599C52.7478 22.7599 52.8278 22.8399 52.9078 22.6399L53.9078 20.8399C53.9078 20.7999 53.9078 20.7599 53.9878 20.7599C53.9878 20.7599 54.0278 20.7599 54.0278 20.7199V20.6799C54.0278 20.2799 54.5478 19.6399 54.5478 19.6399H54.5078C54.4278 19.6399 54.0278 19.8799 54.0278 19.9599L54.0678 19.9199H54.1478C54.1478 19.9999 53.8678 20.3199 53.3078 20.5999C53.2678 20.7199 53.1478 20.8799 52.9878 20.8799H52.9478C52.9078 20.8799 52.9078 20.9199 52.9078 20.9599V20.9999L52.6278 21.2399L52.5878 21.1999C52.5478 21.2799 52.5878 21.2799 52.5078 21.2799L52.4678 21.2399V21.3199C52.4678 21.3999 52.3078 21.5599 52.1878 21.5599C52.1078 21.5599 52.0678 21.7199 51.9478 21.7199V21.7599C51.9478 21.9199 51.5478 21.9199 51.5478 22.0799C51.5078 22.1999 51.3478 22.2399 51.1478 22.2399L51.2278 22.3199C51.0278 22.4799 51.1478 22.3999 50.9078 22.5199C50.9078 22.5999 50.5878 22.5999 50.5078 22.6799C50.5078 22.7999 50.0278 22.9599 49.2678 23.0399C48.9878 23.0399 48.7878 22.7999 48.6678 22.6799C48.5478 22.6399 48.4678 22.4799 48.4678 22.2399C48.5878 21.3199 48.5878 21.4399 48.7078 21.0799C48.8278 21.0799 49.0678 20.3999 49.1478 20.3999C49.2678 20.3999 49.3478 20.0799 49.9478 19.2799C50.0278 19.1599 50.2278 19.1199 50.2278 18.9999C50.2278 18.9199 52.0278 17.0399 52.3078 17.0399C52.8278 16.6399 53.1878 16.3999 53.9478 16.3199C54.5478 16.3999 54.7478 16.4399 55.0278 16.7999C55.1478 16.9199 55.2678 16.9599 55.3478 16.9599C55.4678 16.9599 55.5478 16.5599 56.2678 16.4399C56.8278 16.4399 56.8678 17.0799 56.8678 17.3999C56.8678 18.3199 56.7078 17.9999 56.7078 18.1599C56.7078 18.1999 56.5078 18.4399 56.5078 18.4399V18.5199C56.5078 18.7999 56.2678 18.9599 56.2678 18.9999H56.3478C56.2278 19.1999 56.1878 19.1999 56.0278 19.5199C55.9478 19.7199 55.7478 20.1999 55.6278 20.1999H55.5878V20.3199L55.4678 20.5999C55.4678 20.6399 55.4278 20.6799 55.3878 20.6799L55.2678 20.9199L55.3078 20.9999C55.3078 21.0399 55.3078 21.0399 55.2678 21.0399H55.2278C55.1878 21.0399 55.1878 21.0799 55.1878 21.1199C55.1078 21.3199 54.9478 21.5999 54.8278 21.7599C54.8278 21.8399 54.7478 21.7999 54.7478 21.8799C54.7478 22.0399 54.6278 21.9599 54.6278 22.0399V22.0799C54.4278 22.5199 54.4678 22.1999 54.2678 22.6399C54.1878 22.7199 54.2678 22.9199 54.0678 23.1199C53.9478 23.1199 54.0278 23.2799 53.9078 23.2799L53.8678 23.2399V23.3599C53.8678 23.3999 53.6678 23.3999 53.5878 23.7199L53.6678 23.6799L53.4678 23.9599L53.5878 23.9199C53.5878 24.0399 53.4278 24.0399 53.4278 24.1999C53.5478 24.1999 54.5078 23.7599 55.7478 22.9999C57.5878 21.8399 59.9078 20.1199 60.2278 19.9199L61.4278 18.9199C61.5078 18.8399 61.5478 18.8399 61.5878 18.8399L61.6278 18.8799C61.4678 19.1599 60.2678 20.2799 60.1478 20.2799C60.1078 20.2799 60.0678 20.3199 60.0278 20.3599C59.3878 20.9999 58.1478 21.7599 56.0278 23.1599C55.7878 23.3599 54.3878 24.3199 53.7478 24.5599C52.9078 24.8799 52.7478 25.1599 52.7478 25.1599H52.6678L52.7078 25.1999C52.7078 25.3599 52.3878 25.5199 52.3878 25.7199C52.3878 25.7599 52.3878 25.7599 52.3478 25.7599H52.3078C52.1078 25.7599 52.1078 26.1999 51.9878 26.2399C51.8678 26.2799 51.8278 26.3199 51.8278 26.4399C51.8278 26.5999 51.6278 26.7599 51.5078 26.9599C51.4678 26.9599 51.4678 26.9599 51.4678 26.9999V27.0399C51.4678 27.0399 51.1078 27.3999 51.1078 27.5599V27.5999C50.7878 27.7599 50.9478 27.7199 50.7078 28.0399H50.7878C50.5878 28.2399 50.3078 28.6399 50.3078 28.6399V28.6799C50.3078 28.7199 50.2678 28.7199 50.2278 28.7599C49.7878 29.2399 49.2678 29.8799 49.2678 30.0399C49.2678 30.0399 49.0678 30.1999 49.0678 30.2799C49.0678 30.3199 49.0278 30.3199 48.9878 30.3599C48.9078 30.4799 48.9078 30.3999 48.9078 30.5599C48.8678 30.5599 48.5478 30.8399 48.5078 30.9599C45.8678 33.9199 46.3078 33.4799 44.8678 34.6399C44.1078 35.1999 42.8678 35.9599 41.1878 36.2399L40.4678 36.3199Z" fill="black"/>
<path d="M62.3653 19.3199C63.4853 19.0399 64.4053 18.1599 64.5653 17.5599L64.5253 17.5199C64.2453 17.5199 63.9253 17.7599 63.0453 18.3599C62.8053 18.5199 62.1253 19.1199 62.1253 19.1999C62.1253 19.2399 62.2053 19.3199 62.3653 19.3199ZM68.1653 23.3999C67.8053 23.2399 67.9253 23.0399 67.8453 23.0399C67.7653 23.0399 67.7653 22.9999 67.7653 22.9599V22.8399C67.7653 22.6799 67.8853 22.7599 67.8853 22.5999V22.5599C67.8853 22.3199 68.1653 21.9999 68.1653 21.8799C68.6053 20.6799 69.2453 19.7199 69.6453 18.9199C69.8453 18.4399 69.8853 18.1599 70.0453 18.1599L70.4053 17.3999L70.3653 17.3599L70.2853 17.3999C69.2453 18.5199 68.1253 19.5599 67.2053 20.4399C66.0053 21.5599 64.0853 23.0399 62.5253 23.0399C61.3653 23.0399 60.3253 22.0399 60.3253 20.9599C60.3253 20.5999 60.4053 20.1999 60.6453 19.7999C61.3653 18.4799 63.5253 16.7199 64.6053 16.6399C64.9253 16.6399 65.3253 16.9599 65.3253 17.3199C65.3253 17.3999 65.3253 17.5199 65.2453 17.6399C64.8053 18.5199 64.2053 19.1599 62.8053 19.7999C62.6853 19.8399 62.5653 19.8799 62.4053 19.8799C62.0453 19.8799 61.9653 19.6399 61.7653 19.6399C61.4453 19.6399 60.9653 20.6799 60.9653 21.1599C61.0853 22.2799 61.8053 22.6799 62.5653 22.6799C64.0453 22.6799 66.0053 21.1599 66.8453 20.3599C68.4853 18.8399 70.0853 17.5199 71.0053 16.3599C71.0853 16.3199 71.0853 16.2799 71.0853 16.2399V16.1999C71.0853 15.9999 71.4053 15.8799 71.6053 15.8399C71.8453 15.8399 71.9653 15.9999 71.9653 16.2799V16.3599L70.7253 19.0799L70.7653 19.1199L71.5253 18.4399V18.3599L71.6053 18.3999C71.8853 18.3999 71.8053 17.9199 72.0453 17.9199H72.0853C72.1653 17.9199 72.1653 17.8799 72.2453 17.7999L72.0853 17.8799C72.1253 17.7599 72.0853 17.7999 72.2453 17.7599H72.2853C72.3253 17.7599 72.3653 17.7599 72.4053 17.7199V17.6799L72.3253 17.7199C72.3653 17.5999 72.3253 17.6399 72.4453 17.5999H72.4853C72.7253 17.5199 72.6453 17.5599 72.8053 17.3999L72.5253 17.5199C72.6053 17.4399 72.8453 17.3199 72.8853 17.3199H72.9653C73.0853 17.1999 73.3653 17.1599 73.5253 17.1599C73.7253 17.1599 73.9653 17.4399 73.9653 17.8399C73.9653 18.2399 73.3253 19.9199 73.3253 20.9999C73.3253 22.2799 74.2053 22.5999 74.8453 22.5999C76.6853 22.5999 79.2853 19.6799 80.2453 18.7599L80.2853 18.7999L80.2453 18.9199C79.4453 19.8799 78.0053 21.6799 75.8453 22.7599C75.4453 22.8799 75.1253 23.0399 74.6853 23.0399C73.6453 23.0399 72.6053 22.2799 72.6053 20.9999V20.6799C72.6053 20.3599 72.6453 20.0399 72.7253 19.6399C72.7253 19.4799 73.1253 18.1599 73.1253 18.1599C73.0053 18.1599 71.7253 19.3999 71.4053 19.7999C71.2853 19.9599 71.1653 20.1199 71.0853 20.1599C69.7653 21.8399 70.3253 20.9999 68.9253 22.9199C68.8453 23.0799 68.6853 23.2399 68.5653 23.2399L68.5253 23.1999C68.4053 23.3199 68.3653 23.3999 68.1653 23.3999Z" fill="black"/>
<path d="M80.3981 22.6399C79.7981 22.6399 79.2781 22.5199 79.0381 22.1199C78.9581 21.9199 78.8781 21.6399 78.8781 21.5599V21.5199C78.8781 21.5199 78.9181 21.1199 79.0381 20.9999H78.9981C79.1581 19.9599 79.5581 19.7599 79.6381 19.3999C79.8381 19.1999 79.9981 18.8399 79.9981 18.7599C80.0781 18.7599 80.5981 17.7199 80.7981 17.6799C81.0381 17.6799 81.3981 17.7999 81.3981 18.1199C81.3981 18.6399 81.2381 18.7599 80.6781 19.3999C80.3581 19.7999 80.1981 19.9199 79.8781 20.8399C79.7981 20.8399 79.6381 21.4799 79.6381 21.6399C79.7181 21.7999 79.7181 21.9999 80.4781 21.9999C80.9181 21.9999 81.0381 21.9599 81.4781 21.7599C82.6781 21.2799 84.2781 20.2399 85.5981 19.0399C85.7981 18.8399 85.9581 18.7599 85.9981 18.7599L86.0381 18.7999C86.0381 18.9599 84.4781 20.4399 84.3581 20.4399C84.2781 20.4399 84.1981 20.6799 84.1181 20.6799C83.9981 20.6799 82.5181 21.9199 82.3581 21.9199C82.3581 21.9199 81.3981 22.6399 80.3981 22.6399ZM82.4781 15.4799C82.3181 15.4799 82.1981 15.3599 82.0381 15.1599C81.9981 15.1199 81.9581 15.0799 81.9581 15.0399C82.3181 14.4799 82.2381 14.5199 82.9181 14.3599C83.2381 14.3599 83.2381 14.6399 83.3181 14.7199C83.3581 14.7599 83.3981 14.7999 83.3981 14.8399C83.3981 15.0799 82.8381 15.4799 82.4781 15.4799Z" fill="black"/>
<path d="M86.1375 23.6799C85.9775 23.6799 85.4175 23.6399 85.1375 23.4399C84.7775 23.2399 84.4575 22.7999 84.4575 22.6399H84.4175C84.3775 22.6399 84.3375 22.5999 84.3375 22.3199L84.3775 22.2799H84.3375C84.2975 22.2399 84.2975 22.1199 84.2975 21.9999C84.2975 21.7199 84.3375 21.7199 84.3775 21.6799C84.3775 21.4799 84.4175 21.3199 84.4175 21.3199C84.4575 21.3199 84.4575 21.2799 84.4575 21.1999C84.5775 20.7199 84.7775 20.3599 84.8575 20.1999C84.8575 20.0399 84.9775 20.0799 84.9775 19.9999C84.9775 19.7999 85.4975 19.2799 85.5775 19.0399C87.0575 17.3999 87.0975 17.5999 87.3775 17.4399C87.5375 17.0799 88.0975 16.9999 88.6175 16.9599C89.0575 16.9599 89.4975 17.2399 89.4975 17.8799C89.4175 18.7199 89.2175 18.7599 89.1375 18.8799C89.0575 19.0399 88.9375 19.1599 88.7775 19.1599C88.6175 19.1599 88.5775 19.0799 88.5375 18.8399L88.5775 18.7199L88.6175 18.0799C88.6175 17.9599 88.6175 17.9599 88.5775 17.9599C88.4575 17.9599 88.4575 17.9999 88.3375 18.0399C88.2575 18.0399 88.1375 18.1599 87.8175 18.3599C87.6575 18.3599 87.5775 18.5999 87.3775 18.7199C87.3775 18.9199 87.0975 18.9599 87.0975 19.0399C87.0575 19.1199 87.0975 19.1199 87.0175 19.1199C86.8575 19.1999 86.8175 19.0799 86.6975 19.4399C86.4575 19.5599 86.5775 19.6399 86.4575 19.6399C86.4975 19.6399 86.4975 19.6799 86.4975 19.7199C86.3775 19.8799 86.4575 19.7999 86.2975 19.9199V19.8399C86.2575 19.9999 86.1775 19.9599 86.1775 20.1199C86.1375 20.1199 85.9375 20.2799 85.9375 20.3599C85.9375 20.4399 85.8575 20.3999 85.8575 20.4799C85.4575 21.2399 85.1375 21.5199 85.1375 22.1199C85.1375 22.4799 85.4975 22.9999 86.2175 22.9999C86.8575 22.9999 88.1375 22.3999 88.6175 22.1599C90.0175 21.3999 91.6175 20.4399 93.2175 19.2799C93.6575 18.9599 93.9375 18.7599 94.0175 18.7599V18.7999C94.0175 18.8399 93.9375 18.9199 93.7775 19.1199C93.2575 19.5999 90.1775 21.8399 90.0175 21.8399C90.0175 21.8399 89.2175 22.3999 87.6175 23.2399C87.0575 23.5199 86.8975 23.5599 86.1375 23.6799Z" fill="black"/>
</svg>
